# xmcd
#
# Track frame offsets:
#	150
#	14142
#	32221
#	48094
#	66902
#	84714
#	103506
#	124249
#	140602
#	156359
#	169975
#	188865
#	210517
#	228214
#	247944
#	261450
#
# Disc length: 3697 seconds
#
# Revision: 0
# Processed by: cddbd v1.5.1PL2 Copyright (c) Steve Scherf et al.
# Submitted via: EasyCDDAExtractor 9.1.3.1
#
DISCID=e60e6f10
DTITLE=Alabama - The Essential Alabama
DYEAR=1998
DGENRE=Country
TTITLE0=Old Flame
TTITLE1=My Home's In Alabama (Single Edit)
TTITLE2=Close Enough To Perfect
TTITLE3=Mountain Music
TTITLE4=Lady Down On Love
TTITLE5=(There's A) Fire In The Night
TTITLE6=Very Special Love
TTITLE7=Can't Keep A Good Man Down
TTITLE8=She And I
TTITLE9=As Right Now
TTITLE10=You've Got The Touch
TTITLE11=The Fans (Original Version)
TTITLE12=Tar Top
TTITLE13=I Showed Her
TTITLE14=High Cotton
TTITLE15=If I Had You
EXTD=
EXTT0=
EXTT1=
EXTT2=
EXTT3=
EXTT4=
EXTT5=
EXTT6=
EXTT7=
EXTT8=
EXTT9=
EXTT10=
EXTT11=
EXTT12=
EXTT13=
EXTT14=
EXTT15=
PLAYORDER=
